<svg width="31" height="29" viewBox="0 0 31 29" fill="none" xmlns="http://www.w3.org/2000/svg">
<path d="M23.8744 20.2605C23.0525 20.4443 22.1946 20.5415 21.3125 20.5415C15.2489 20.5415 10.3333 15.9431 10.3333 10.2707C10.3333 9.68652 10.3855 9.11373 10.4856 8.55615C10.4389 8.59821 10.3906 8.63695 10.3397 8.67307C9.97727 8.93047 9.52586 9.02602 8.62304 9.21712L7.80109 9.3911C4.624 10.0636 3.03546 10.3998 2.65751 11.5367C2.27957 12.6737 3.36254 13.8584 5.52848 16.2277L6.08883 16.8407C6.70431 17.5139 7.01206 17.8506 7.1505 18.2671C7.28895 18.6836 7.24243 19.1328 7.14936 20.0312L7.06465 20.8489C6.73719 24.0102 6.57346 25.5908 7.56292 26.2935C8.55236 26.9961 10.0397 26.3556 13.0145 25.0742L13.784 24.7427C14.6293 24.3786 15.0519 24.1966 15.5 24.1966C15.9481 24.1966 16.3707 24.3786 17.216 24.7427L17.9856 25.0742C20.9603 26.3556 22.4476 26.9961 23.4372 26.2935C24.4266 25.5908 24.2628 24.0102 23.9354 20.8489L23.8744 20.2605Z" fill="#102C57"/>
<path opacity="0.5" d="M11.8227 6.53521L11.3994 7.24553C10.9345 8.02576 10.702 8.41587 10.3395 8.67327C10.3904 8.63714 10.4387 8.59841 10.4855 8.55635C10.3853 9.11392 10.3332 9.68672 10.3332 10.2709C10.3332 15.9433 15.2487 20.5417 21.3124 20.5417C22.1945 20.5417 23.0523 20.4445 23.8743 20.2607L23.8505 20.0313C23.7574 19.133 23.7109 18.6838 23.8493 18.2673C23.9878 17.8508 24.2955 17.5141 24.911 16.8409L25.4714 16.2279C27.6373 13.8586 28.7202 12.6738 28.3423 11.5369C27.9643 10.4 26.3758 10.0638 23.1987 9.39128L22.3768 9.21731C21.474 9.02621 21.0225 8.93067 20.6601 8.67327C20.2976 8.41587 20.0651 8.02576 19.6003 7.24554L19.177 6.5352C17.5408 3.78956 16.7228 2.41675 15.4999 2.41675C14.2768 2.41675 13.4588 3.78957 11.8227 6.53521Z" fill="#102C57"/>
</svg>
